<svg xmlns="http://www.w3.org/2000/svg" width="172" height="19" viewBox="0 0 172 19" fill="none"><path d="M77.4022 2.00661V16.3589H75.9704V2.00661H77.4022ZM90.1469 7.76372H88.5531C88.5077 7.50235 88.4239 7.27082 88.3017 7.06911C88.1796 6.86457 88.0276 6.69127 87.8457 6.54923C87.6639 6.40718 87.4565 6.30065 87.2236 6.22963C86.9935 6.15576 86.7449 6.11883 86.4779 6.11883C86.0034 6.11883 85.583 6.23815 85.2165 6.47678C84.85 6.71258 84.5631 7.05917 84.3557 7.51656C84.1483 7.9711 84.0446 8.5265 84.0446 9.18275C84.0446 9.85036 84.1483 10.4129 84.3557 10.8703C84.5659 11.3248 84.8528 11.6685 85.2165 11.9015C85.583 12.1316 86.002 12.2467 86.4736 12.2467C86.735 12.2467 86.9793 12.2126 87.2065 12.1444C87.4367 12.0734 87.6426 11.9697 87.8244 11.8333C88.0091 11.697 88.1639 11.5293 88.2889 11.3305C88.4168 11.1316 88.5048 10.9043 88.5531 10.6487L90.1469 10.6572C90.0872 11.072 89.958 11.4612 89.7591 11.8248C89.5631 12.1884 89.306 12.5095 88.9878 12.7879C88.6696 13.0634 88.2975 13.2793 87.8713 13.4356C87.4452 13.589 86.9722 13.6657 86.4523 13.6657C85.6852 13.6657 85.0006 13.4881 84.3983 13.133C83.796 12.7779 83.3216 12.2651 82.975 11.5947C82.6284 10.9242 82.4551 10.1203 82.4551 9.18275C82.4551 8.24241 82.6298 7.43843 82.9793 6.77082C83.3287 6.10036 83.8046 5.58758 84.4068 5.23247C85.0091 4.87735 85.6909 4.6998 86.4523 4.6998C86.9381 4.6998 87.3898 4.76798 87.8074 4.90434C88.225 5.0407 88.5972 5.24099 88.9239 5.50519C89.2506 5.76656 89.519 6.08758 89.7293 6.46826C89.9423 6.8461 90.0815 7.27792 90.1469 7.76372ZM94.3816 13.6742C93.7424 13.6742 93.1884 13.5336 92.7197 13.2524C92.2509 12.9711 91.8873 12.5776 91.6288 12.072C91.3731 11.5663 91.2453 10.9754 91.2453 10.2992C91.2453 9.62309 91.3731 9.03076 91.6288 8.52224C91.8873 8.01372 92.2509 7.61883 92.7197 7.33758C93.1884 7.05633 93.7424 6.9157 94.3816 6.9157C95.0208 6.9157 95.5748 7.05633 96.0435 7.33758C96.5123 7.61883 96.8745 8.01372 97.1302 8.52224C97.3887 9.03076 97.518 9.62309 97.518 10.2992C97.518 10.9754 97.3887 11.5663 97.1302 12.072C96.8745 12.5776 96.5123 12.9711 96.0435 13.2524C95.5748 13.5336 95.0208 13.6742 94.3816 13.6742ZM94.3901 12.4384C94.7367 12.4384 95.0265 12.3433 95.2595 12.1529C95.4924 11.9597 95.6657 11.7012 95.7793 11.3774C95.8958 11.0535 95.9541 10.6927 95.9541 10.295C95.9541 9.8944 95.8958 9.53218 95.7793 9.20832C95.6657 8.88161 95.4924 8.62167 95.2595 8.42849C95.0265 8.23531 94.7367 8.13872 94.3901 8.13872C94.035 8.13872 93.7396 8.23531 93.5038 8.42849C93.2708 8.62167 93.0961 8.88161 92.9796 9.20832C92.866 9.53218 92.8092 9.8944 92.8092 10.295C92.8092 10.6927 92.866 11.0535 92.9796 11.3774C93.0961 11.7012 93.2708 11.9597 93.5038 12.1529C93.7396 12.3433 94.035 12.4384 94.3901 12.4384ZM98.8273 13.5464V7.00093H100.302V8.11315H100.378C100.515 7.73815 100.741 7.44553 101.056 7.23531C101.371 7.02224 101.748 6.9157 102.185 6.9157C102.628 6.9157 103.002 7.02366 103.306 7.23957C103.613 7.45264 103.829 7.74383 103.954 8.11315H104.022C104.167 7.74951 104.411 7.45974 104.755 7.24383C105.101 7.02508 105.512 6.9157 105.986 6.9157C106.589 6.9157 107.08 7.10605 107.461 7.48673C107.841 7.86741 108.032 8.42281 108.032 9.15292V13.5464H106.485V9.39156C106.485 8.98531 106.377 8.68843 106.161 8.50093C105.945 8.31059 105.681 8.21542 105.368 8.21542C104.996 8.21542 104.705 8.3319 104.495 8.56485C104.288 8.79497 104.184 9.09468 104.184 9.464V13.5464H102.671V9.32764C102.671 8.98957 102.569 8.71968 102.364 8.51798C102.163 8.31627 101.898 8.21542 101.572 8.21542C101.35 8.21542 101.148 8.27224 100.966 8.38588C100.785 8.49667 100.64 8.65434 100.532 8.85889C100.424 9.06059 100.37 9.29639 100.37 9.56627V13.5464H98.8273ZM109.597 16.0009V7.00093H111.114V8.08332H111.203C111.283 7.92423 111.395 7.75519 111.54 7.57622C111.685 7.3944 111.881 7.23957 112.128 7.11173C112.375 6.98105 112.691 6.9157 113.074 6.9157C113.58 6.9157 114.036 7.04497 114.442 7.30349C114.851 7.55917 115.175 7.93843 115.414 8.44127C115.655 8.94127 115.776 9.55491 115.776 10.2822C115.776 11.0009 115.658 11.6117 115.422 12.1146C115.186 12.6174 114.865 13.0009 114.459 13.2651C114.053 13.5293 113.593 13.6614 113.078 13.6614C112.703 13.6614 112.392 13.5989 112.145 13.4739C111.898 13.3489 111.699 13.1984 111.549 13.0222C111.401 12.8433 111.286 12.6742 111.203 12.5151H111.139V16.0009H109.597ZM111.11 10.2737C111.11 10.697 111.169 11.0677 111.289 11.3859C111.411 11.7041 111.585 11.9526 111.813 12.1316C112.043 12.3078 112.321 12.3958 112.648 12.3958C112.989 12.3958 113.274 12.3049 113.504 12.1231C113.735 11.9384 113.908 11.687 114.024 11.3688C114.144 11.0478 114.203 10.6828 114.203 10.2737C114.203 9.86741 114.145 9.50661 114.029 9.19127C113.912 8.87593 113.739 8.62877 113.509 8.4498C113.279 8.27082 112.992 8.18133 112.648 8.18133C112.318 8.18133 112.039 8.26798 111.808 8.44127C111.578 8.61457 111.404 8.85747 111.284 9.16997C111.168 9.48247 111.11 9.85036 111.11 10.2737ZM117.097 13.5464V7.00093H118.593V8.09184H118.661C118.78 7.714 118.985 7.42281 119.274 7.21826C119.567 7.01088 119.901 6.90718 120.276 6.90718C120.361 6.90718 120.456 6.91144 120.561 6.91997C120.669 6.92565 120.759 6.93559 120.83 6.9498V8.36883C120.764 8.3461 120.661 8.32622 120.519 8.30917C120.379 8.28928 120.245 8.27934 120.114 8.27934C119.833 8.27934 119.58 8.34042 119.355 8.46258C119.134 8.5819 118.959 8.74809 118.831 8.96116C118.703 9.17423 118.639 9.41997 118.639 9.69838V13.5464H117.097ZM123.621 13.6785C123.206 13.6785 122.833 13.6046 122.5 13.4569C122.171 13.3063 121.909 13.0847 121.716 12.7921C121.526 12.4995 121.431 12.1387 121.431 11.7097C121.431 11.3404 121.499 11.035 121.635 10.7935C121.772 10.5521 121.958 10.3589 122.193 10.214C122.429 10.0691 122.695 9.95974 122.99 9.88588C123.289 9.80917 123.597 9.75377 123.915 9.71968C124.299 9.67991 124.61 9.6444 124.848 9.61315C125.087 9.57906 125.26 9.52792 125.368 9.45974C125.479 9.38872 125.534 9.27934 125.534 9.13161V9.10605C125.534 8.78502 125.439 8.53644 125.249 8.36031C125.058 8.18417 124.784 8.0961 124.426 8.0961C124.049 8.0961 123.749 8.17849 123.527 8.34326C123.308 8.50803 123.161 8.70264 123.084 8.92707L121.644 8.72252C121.757 8.3248 121.945 7.99241 122.206 7.72536C122.468 7.45548 122.787 7.25377 123.165 7.12025C123.543 6.98389 123.96 6.9157 124.418 6.9157C124.733 6.9157 125.047 6.95264 125.36 7.0265C125.672 7.10036 125.958 7.22252 126.216 7.39298C126.475 7.56059 126.682 7.78928 126.838 8.07906C126.997 8.36883 127.077 8.73105 127.077 9.1657V13.5464H125.594V12.6472H125.543C125.449 12.8291 125.317 12.9995 125.147 13.1586C124.979 13.3149 124.767 13.4413 124.512 13.5379C124.259 13.6316 123.962 13.6785 123.621 13.6785ZM124.022 12.545C124.331 12.545 124.6 12.4839 124.827 12.3617C125.054 12.2367 125.229 12.072 125.351 11.8674C125.476 11.6629 125.539 11.4399 125.539 11.1984V10.4271C125.49 10.4668 125.408 10.5038 125.291 10.5379C125.178 10.572 125.05 10.6018 124.908 10.6274C124.766 10.6529 124.625 10.6756 124.486 10.6955C124.347 10.7154 124.226 10.7325 124.124 10.7467C123.894 10.7779 123.688 10.8291 123.506 10.9001C123.324 10.9711 123.181 11.0705 123.076 11.1984C122.97 11.3234 122.918 11.4853 122.918 11.6842C122.918 11.9683 123.022 12.1828 123.229 12.3276C123.436 12.4725 123.701 12.545 124.022 12.545ZM136.778 8.73105L135.372 8.88445C135.332 8.74241 135.262 8.60889 135.163 8.48389C135.066 8.35889 134.936 8.25803 134.771 8.18133C134.606 8.10463 134.404 8.06627 134.166 8.06627C133.845 8.06627 133.575 8.13588 133.356 8.27508C133.14 8.41428 133.034 8.59468 133.036 8.81627C133.034 9.00661 133.103 9.16144 133.245 9.28076C133.39 9.40008 133.629 9.49809 133.961 9.5748L135.078 9.81343C135.697 9.94695 136.157 10.1586 136.458 10.4484C136.762 10.7381 136.916 11.1174 136.919 11.5862C136.916 11.9981 136.795 12.3617 136.556 12.6771C136.321 12.9896 135.992 13.2339 135.572 13.41C135.152 13.5862 134.669 13.6742 134.123 13.6742C133.322 13.6742 132.677 13.5066 132.188 13.1714C131.7 12.8333 131.409 12.3631 131.315 11.7609L132.819 11.616C132.887 11.9114 133.032 12.1345 133.254 12.285C133.475 12.4356 133.764 12.5109 134.119 12.5109C134.485 12.5109 134.779 12.4356 135.001 12.285C135.225 12.1345 135.338 11.9484 135.338 11.7268C135.338 11.5393 135.265 11.3845 135.12 11.2623C134.978 11.1401 134.757 11.0464 134.455 10.981L133.339 10.7467C132.711 10.616 132.247 10.3958 131.946 10.0862C131.644 9.77366 131.495 9.37877 131.498 8.9015C131.495 8.49809 131.605 8.14866 131.826 7.8532C132.051 7.55491 132.362 7.3248 132.759 7.16286C133.16 6.99809 133.622 6.9157 134.144 6.9157C134.911 6.9157 135.515 7.07906 135.955 7.40576C136.399 7.73247 136.673 8.17423 136.778 8.73105ZM141.088 13.6742C140.432 13.6742 139.865 13.5379 139.388 13.2651C138.914 12.9896 138.549 12.6004 138.293 12.0975C138.037 11.5918 137.909 10.9967 137.909 10.312C137.909 9.63872 138.037 9.04781 138.293 8.53928C138.551 8.02792 138.912 7.63019 139.375 7.3461C139.838 7.05917 140.382 6.9157 141.007 6.9157C141.411 6.9157 141.791 6.98105 142.149 7.11173C142.51 7.23957 142.828 7.43843 143.104 7.70832C143.382 7.9782 143.601 8.32195 143.76 8.73957C143.919 9.15434 143.999 9.64866 143.999 10.2225V10.6955H138.634V9.65576H142.52C142.517 9.36031 142.453 9.09752 142.328 8.86741C142.203 8.63445 142.029 8.45122 141.804 8.31769C141.583 8.18417 141.324 8.11741 141.029 8.11741C140.713 8.11741 140.436 8.19411 140.198 8.34752C139.959 8.49809 139.773 8.69695 139.639 8.94411C139.509 9.18843 139.442 9.4569 139.439 9.74951V10.6572C139.439 11.0379 139.509 11.3646 139.648 11.6373C139.787 11.9072 139.982 12.1146 140.232 12.2595C140.482 12.4015 140.774 12.4725 141.11 12.4725C141.334 12.4725 141.537 12.4413 141.719 12.3788C141.901 12.3134 142.058 12.2183 142.192 12.0933C142.326 11.9683 142.426 11.8134 142.495 11.6288L143.935 11.7907C143.844 12.1714 143.671 12.5038 143.415 12.7879C143.162 13.0691 142.838 13.2879 142.443 13.4441C142.049 13.5975 141.597 13.6742 141.088 13.6742ZM148.15 16.1373C147.596 16.1373 147.121 16.062 146.723 15.9114C146.325 15.7637 146.006 15.5649 145.764 15.3149C145.523 15.0649 145.355 14.7879 145.261 14.4839L146.65 14.1472C146.713 14.2751 146.804 14.4015 146.923 14.5265C147.042 14.6543 147.203 14.7595 147.405 14.8418C147.609 14.9271 147.866 14.9697 148.176 14.9697C148.614 14.9697 148.976 14.8631 149.263 14.6501C149.55 14.4399 149.693 14.0933 149.693 13.6103V12.3703H149.616C149.537 12.5293 149.42 12.6927 149.267 12.8603C149.116 13.0279 148.916 13.1685 148.666 13.2822C148.419 13.3958 148.108 13.4526 147.733 13.4526C147.23 13.4526 146.774 13.3347 146.365 13.0989C145.959 12.8603 145.635 12.5052 145.393 12.0336C145.155 11.5592 145.035 10.9654 145.035 10.2524C145.035 9.5336 145.155 8.92707 145.393 8.43275C145.635 7.93559 145.96 7.55917 146.369 7.30349C146.778 7.04497 147.234 6.9157 147.737 6.9157C148.121 6.9157 148.436 6.98105 148.683 7.11173C148.933 7.23957 149.132 7.3944 149.28 7.57622C149.427 7.75519 149.54 7.92423 149.616 8.08332H149.702V7.00093H151.223V13.6529C151.223 14.2126 151.089 14.6756 150.822 15.0421C150.555 15.4086 150.19 15.6828 149.727 15.8646C149.264 16.0464 148.739 16.1373 148.15 16.1373ZM148.163 12.2424C148.49 12.2424 148.768 12.1629 148.998 12.0038C149.229 11.8447 149.403 11.616 149.523 11.3177C149.642 11.0194 149.702 10.6614 149.702 10.2438C149.702 9.8319 149.642 9.4711 149.523 9.16144C149.406 8.85178 149.233 8.61173 149.003 8.44127C148.775 8.26798 148.496 8.18133 148.163 8.18133C147.819 8.18133 147.533 8.27082 147.302 8.4498C147.072 8.62877 146.899 8.87451 146.783 9.18701C146.666 9.49667 146.608 9.84894 146.608 10.2438C146.608 10.6444 146.666 10.9953 146.783 11.2964C146.902 11.5947 147.077 11.8276 147.307 11.9953C147.54 12.16 147.825 12.2424 148.163 12.2424ZM156.976 10.7935V7.00093H158.518V13.5464H157.023V12.383H156.954C156.807 12.7495 156.564 13.0492 156.226 13.2822C155.89 13.5151 155.477 13.6316 154.986 13.6316C154.557 13.6316 154.177 13.5364 153.848 13.3461C153.521 13.1529 153.265 12.8731 153.081 12.5066C152.896 12.1373 152.804 11.6913 152.804 11.1685V7.00093H154.346V10.9299C154.346 11.3447 154.46 11.6742 154.687 11.9185C154.915 12.1629 155.213 12.285 155.582 12.285C155.81 12.285 156.03 12.2296 156.243 12.1188C156.456 12.008 156.631 11.8433 156.767 11.6245C156.906 11.4029 156.976 11.1259 156.976 10.7935ZM160.105 13.5464V7.00093H161.6V8.09184H161.669C161.788 7.714 161.992 7.42281 162.282 7.21826C162.575 7.01088 162.909 6.90718 163.284 6.90718C163.369 6.90718 163.464 6.91144 163.569 6.91997C163.677 6.92565 163.767 6.93559 163.838 6.9498V8.36883C163.772 8.3461 163.669 8.32622 163.527 8.30917C163.387 8.28928 163.252 8.27934 163.122 8.27934C162.84 8.27934 162.588 8.34042 162.363 8.46258C162.142 8.5819 161.967 8.74809 161.839 8.96116C161.711 9.17423 161.647 9.41997 161.647 9.69838V13.5464H160.105ZM166.629 13.6785C166.214 13.6785 165.84 13.6046 165.508 13.4569C165.178 13.3063 164.917 13.0847 164.724 12.7921C164.534 12.4995 164.438 12.1387 164.438 11.7097C164.438 11.3404 164.507 11.035 164.643 10.7935C164.779 10.5521 164.965 10.3589 165.201 10.214C165.437 10.0691 165.703 9.95974 165.998 9.88588C166.296 9.80917 166.605 9.75377 166.923 9.71968C167.306 9.67991 167.617 9.6444 167.856 9.61315C168.095 9.57906 168.268 9.52792 168.376 9.45974C168.487 9.38872 168.542 9.27934 168.542 9.13161V9.10605C168.542 8.78502 168.447 8.53644 168.257 8.36031C168.066 8.18417 167.792 8.0961 167.434 8.0961C167.056 8.0961 166.757 8.17849 166.535 8.34326C166.316 8.50803 166.169 8.70264 166.092 8.92707L164.652 8.72252C164.765 8.3248 164.953 7.99241 165.214 7.72536C165.475 7.45548 165.795 7.25377 166.173 7.12025C166.551 6.98389 166.968 6.9157 167.426 6.9157C167.741 6.9157 168.055 6.95264 168.367 7.0265C168.68 7.10036 168.965 7.22252 169.224 7.39298C169.482 7.56059 169.69 7.78928 169.846 8.07906C170.005 8.36883 170.085 8.73105 170.085 9.1657V13.5464H168.602V12.6472H168.551C168.457 12.8291 168.325 12.9995 168.154 13.1586C167.987 13.3149 167.775 13.4413 167.519 13.5379C167.267 13.6316 166.97 13.6785 166.629 13.6785ZM167.029 12.545C167.339 12.545 167.607 12.4839 167.835 12.3617C168.062 12.2367 168.237 12.072 168.359 11.8674C168.484 11.6629 168.546 11.4399 168.546 11.1984V10.4271C168.498 10.4668 168.416 10.5038 168.299 10.5379C168.186 10.572 168.058 10.6018 167.916 10.6274C167.774 10.6529 167.633 10.6756 167.494 10.6955C167.355 10.7154 167.234 10.7325 167.132 10.7467C166.902 10.7779 166.696 10.8291 166.514 10.9001C166.332 10.9711 166.188 11.0705 166.083 11.1984C165.978 11.3234 165.926 11.4853 165.926 11.6842C165.926 11.9683 166.029 12.1828 166.237 12.3276C166.444 12.4725 166.708 12.545 167.029 12.545Z" fill="black"></path><path d="M5.26898 1.79966C4.7525 2.55717 4.25237 3.17092 3.88395 3.85612C2.7408 5.97714 2.53335 8.20232 3.38554 10.4714C4.4142 13.2105 6.36565 14.957 9.22696 15.6311C11.9738 16.2775 14.4012 15.5751 16.5162 13.7562C16.8081 13.5057 16.9733 13.5152 17.2187 13.7726C17.6714 14.2486 18.1371 14.7126 18.6114 15.1662C18.8439 15.3883 18.8318 15.5381 18.5925 15.7576C16.2709 17.8872 13.5258 18.8858 10.3951 18.7127C7.6844 18.563 5.32149 17.5085 3.36574 15.6181C1.80769 14.1126 0.797105 12.2843 0.292674 10.1753C-0.136867 8.38481 -0.0852191 6.59864 0.392527 4.83399C0.854779 3.12788 1.68976 1.60856 2.89058 0.300138C3.25212 -0.0941106 3.29171 -0.0941106 3.66875 0.265706C4.2145 0.786492 4.75766 1.30986 5.26898 1.80052V1.79966Z" fill="black"></path><path d="M35.1347 4.89245C36.0505 4.89245 36.864 4.87695 37.6749 4.90967C37.7928 4.91483 37.9572 5.13606 38.0054 5.28756C38.5718 7.08147 39.1193 8.88056 39.6754 10.6779C39.7021 10.7631 39.758 10.8389 39.8562 11.0257C40.0593 10.3551 40.2306 9.79301 40.3993 9.2309C40.8065 7.87858 41.2042 6.52281 41.6311 5.17651C41.6716 5.04998 41.8885 4.90278 42.0297 4.89675C42.6873 4.86749 43.3476 4.89417 44.0061 4.87954C44.3366 4.87265 44.3935 5.08699 44.4684 5.3306C45.0098 7.10385 45.559 8.87539 46.1073 10.6478C46.1409 10.7554 46.1848 10.8595 46.2623 11.0687C46.592 9.99099 46.8932 9.00623 47.1937 8.02147C47.4683 7.12107 47.7506 6.22325 48.0123 5.31941C48.107 4.9923 48.2791 4.85974 48.6278 4.87523C49.214 4.90106 49.8019 4.88556 50.3898 4.88212C50.6773 4.8804 50.8254 4.9441 50.698 5.28498C50.0205 7.10127 49.3551 8.92187 48.6906 10.7433C48.3687 11.6274 48.0484 12.5123 47.7472 13.4041C47.6249 13.7665 47.4734 13.986 47.0249 13.9498C46.4267 13.9025 45.8224 13.93 45.2207 13.9421C44.9711 13.9472 44.8402 13.8741 44.7584 13.6158C44.3212 12.2437 43.8623 10.8785 43.4087 9.51152C43.2744 9.10781 43.1324 8.70753 42.968 8.23151C42.5686 9.46676 42.195 10.6306 41.8171 11.7918C41.6139 12.4159 41.4202 13.0434 41.1861 13.6554C41.1379 13.7811 40.933 13.9188 40.7944 13.9249C40.1368 13.9533 39.4765 13.9206 38.818 13.9455C38.5133 13.9567 38.379 13.8216 38.2861 13.5668C37.9107 12.5347 37.5285 11.506 37.1507 10.4748C36.5429 8.81341 35.9369 7.1512 35.3318 5.48899C35.275 5.33232 35.2268 5.17221 35.1338 4.89245H35.1347Z" fill="black"></path><path d="M25.0959 10.3629C24.5966 10.9672 23.8753 11.3193 24.0121 12.2343C24.0767 12.6682 24.0121 13.1192 24.0268 13.5625C24.0354 13.8328 23.9502 13.949 23.6618 13.943C23.0033 13.9275 22.3439 13.9292 21.6854 13.943C21.4194 13.9482 21.323 13.8328 21.3273 13.5892C21.329 13.5032 21.3247 13.4179 21.3247 13.3319C21.3247 9.60027 21.3247 5.86782 21.3247 2.13624C21.3247 1.46137 21.3273 1.4605 21.9867 1.45964C22.5023 1.45964 23.0188 1.47686 23.5335 1.45448C23.9054 1.43812 24.0337 1.5681 24.0311 1.94686C24.0156 3.81997 24.0242 5.69308 24.0242 7.56619C24.0242 7.72199 24.0242 7.8778 24.0242 8.13948C24.1963 7.98282 24.3091 7.88985 24.4107 7.78569C25.2362 6.9335 26.0471 6.06667 26.8941 5.23513C27.0749 5.0578 27.3787 4.93299 27.6335 4.91663C28.3179 4.87359 29.0074 4.90028 29.6952 4.90372C29.8338 4.90372 29.9715 4.92696 30.2116 4.94848C29.9517 5.24718 29.7606 5.4839 29.5514 5.70341C28.7732 6.52117 27.9942 7.33807 27.2023 8.14206C27.0095 8.33833 26.9802 8.47261 27.1394 8.72225C28.1862 10.3569 29.2105 12.0054 30.2401 13.6503C30.2753 13.7072 30.2865 13.7786 30.3236 13.8871C30.191 13.9069 30.0868 13.9361 29.9827 13.937C29.1804 13.9404 28.3781 13.9301 27.5767 13.9447C27.3116 13.9499 27.1678 13.8501 27.0361 13.6245C26.4198 12.5649 25.7837 11.5164 25.095 10.3647L25.0959 10.3629Z" fill="black"></path><path d="M63.0306 14.5138C63.3689 14.6558 63.6237 14.7832 63.8923 14.871C64.6343 15.1146 65.5743 14.5052 65.5631 13.7365C65.5579 13.4008 65.3548 13.0625 65.2162 12.7362C64.5232 11.1084 63.8208 9.48581 63.1227 7.85975C62.7853 7.07384 62.4487 6.28793 62.1181 5.49857C62.0493 5.33329 62.0088 5.15683 61.9219 4.87965C62.3333 4.87965 62.6691 4.87965 63.0048 4.87965C63.4489 4.87965 63.8957 4.85383 64.3356 4.89601C64.4922 4.91064 64.7143 5.0587 64.7703 5.19901C65.3367 6.62967 65.873 8.07323 66.4222 9.51078C66.578 9.9188 66.7467 10.3217 67.0101 10.7288C67.1711 10.2795 67.3363 9.831 67.4921 9.37993C67.9673 8.00523 68.4468 6.63139 68.9064 5.25152C69.0011 4.96659 69.1569 4.87276 69.4393 4.87707C70.1632 4.8874 70.8863 4.88051 71.723 4.88051C71.4665 5.55538 71.2582 6.12351 71.0361 6.68648C70.3466 8.43735 69.6579 10.1891 68.9564 11.9357C68.4726 13.1391 68.0138 14.3554 67.4568 15.5252C66.9343 16.6245 66.0038 17.2098 64.766 17.2847C63.8363 17.3407 62.9669 17.1874 62.2146 16.6072C62.1113 16.5272 61.983 16.312 62.0209 16.2423C62.3419 15.6474 62.6992 15.0707 63.0315 14.5129L63.0306 14.5138Z" fill="black"></path><path d="M62.0433 3.8828C61.5543 3.78983 61.1282 3.65038 60.6987 3.64091C60.0557 3.62628 59.5573 4.56541 59.893 5.11288C59.9429 5.1938 60.1082 5.23512 60.2227 5.23942C60.666 5.25492 61.1101 5.25492 61.5535 5.24545C61.8479 5.23942 61.9632 5.36166 61.9512 5.65605C61.9348 6.05546 61.9374 6.4566 61.9494 6.85601C61.9572 7.11684 61.841 7.21497 61.5913 7.21152C61.1618 7.20636 60.7314 7.23046 60.3036 7.20636C59.9386 7.1857 59.8396 7.33548 59.8422 7.68066C59.8542 9.56755 59.8482 11.4544 59.8473 13.3404C59.8473 13.9361 59.8448 13.937 59.2697 13.937C58.7111 13.937 58.1524 13.918 57.5946 13.9439C57.2503 13.9602 57.1556 13.8397 57.1582 13.5049C57.172 11.5896 57.1513 9.67428 57.1746 7.759C57.1797 7.33204 57.0781 7.17968 56.6331 7.2012C55.966 7.23477 55.9651 7.20636 55.9643 6.51944C55.9643 6.23365 55.9763 5.947 55.9617 5.66208C55.947 5.37199 56.0624 5.25664 56.3568 5.24201C57.1582 5.20327 57.1582 5.19294 57.1651 4.41305C57.1806 2.7362 58.3642 1.52247 60.14 1.36667C61.0017 1.29091 61.8151 1.47168 62.5985 1.82547C62.8714 1.94857 62.9635 2.08974 62.7982 2.385C62.5201 2.88168 62.2826 3.39988 62.0415 3.88107L62.0433 3.8828Z" fill="black"></path><path d="M54.4502 9.44961C54.4502 10.7942 54.4407 12.1396 54.457 13.4842C54.4613 13.844 54.3374 13.9585 53.9845 13.9447C53.369 13.9215 52.7518 13.9266 52.1363 13.943C51.8342 13.9508 51.6913 13.8664 51.6921 13.5367C51.6999 10.7899 51.6982 8.04305 51.6939 5.29623C51.6939 5.00442 51.8161 4.8796 52.1045 4.88132C52.7492 4.88649 53.394 4.88993 54.0387 4.88046C54.3606 4.87616 54.4562 5.0268 54.4536 5.32894C54.4441 6.70192 54.4493 8.07576 54.4493 9.44961H54.4502Z" fill="black"></path><path d="M34.1817 9.40146C34.1817 10.7598 34.1731 12.1173 34.1877 13.4756C34.1911 13.8226 34.0896 13.9603 33.7246 13.9456C33.11 13.9198 32.4928 13.9284 31.8782 13.9431C31.5932 13.95 31.4641 13.8682 31.465 13.5591C31.4727 10.8003 31.4719 8.04139 31.4667 5.28252C31.4667 5.01309 31.5674 4.88396 31.8403 4.88483C32.4988 4.88741 33.1573 4.88999 33.8167 4.8831C34.1369 4.87966 34.1868 5.06473 34.1851 5.32814C34.1799 6.68649 34.1825 8.04398 34.1825 9.40232L34.1817 9.40146Z" fill="black"></path><path d="M53.0865 3.88779C52.2516 3.88951 51.6042 3.23013 51.6094 2.38396C51.6146 1.54984 52.243 0.915432 53.0667 0.91285C53.9258 0.910267 54.5448 1.54124 54.5344 2.41065C54.525 3.26457 53.9155 3.88693 53.0874 3.88865L53.0865 3.88779Z" fill="black"></path><path d="M32.8199 0.911155C33.6514 0.906851 34.2979 1.53954 34.3013 2.36161C34.3048 3.2293 33.6815 3.88265 32.8466 3.88781C31.9978 3.89298 31.3815 3.26115 31.3806 2.38743C31.3806 1.52921 31.9789 0.915459 32.8199 0.911155V0.911155Z" fill="black"></path><path d="M6.51111 11.6765C6.51283 10.8639 7.69127 9.69498 8.49785 9.71736C8.84905 9.72683 9.06253 9.89899 9.0522 10.276C9.03585 10.8691 8.67775 11.29 8.27145 11.6473C7.98997 11.8943 7.63876 12.0794 7.291 12.2283C6.87695 12.4056 6.51025 12.1224 6.51111 11.6774V11.6765Z" fill="black"></path><path d="M14.23 12.6465C14.1611 12.7774 14.0922 13.1157 13.9209 13.1794C13.6963 13.262 13.3253 13.2164 13.1333 13.0718C12.4748 12.5734 12.1107 11.8761 12.1296 11.0403C12.1348 10.8242 12.2983 10.5049 12.4748 10.4283C12.6564 10.3491 12.9939 10.4394 13.1729 10.5746C13.8099 11.0541 14.1206 11.7341 14.23 12.6465V12.6465Z" fill="black"></path><path d="M11.2033 11.8805C11.1396 12.5717 11.0613 13.1493 10.6326 13.6038C10.2633 13.9946 9.78991 13.93 9.62635 13.423C9.35176 12.57 9.4189 11.7272 9.98703 10.9973C10.3658 10.5109 10.8323 10.6056 11.0493 11.1918C11.1405 11.4406 11.1681 11.7126 11.2042 11.8805H11.2033Z" fill="black"></path><path d="M6.03335 9.31617C5.8741 9.27657 5.60122 9.24127 5.35331 9.14142C4.81875 8.92622 4.74472 8.41404 5.20525 8.07489C5.94124 7.53344 6.77794 7.48007 7.62067 7.72196C8.13199 7.86829 8.19052 8.41318 7.7825 8.76095C7.30992 9.16466 6.73834 9.26452 6.03335 9.31617Z" fill="black"></path><path d="M6.42327 4.6015C7.07749 4.63507 7.73944 4.99661 8.23355 5.63963C8.58992 6.1036 8.35836 6.58135 7.77732 6.64763C7.06457 6.72941 5.92487 6.14922 5.57796 5.52686C5.2698 4.97595 5.54784 4.59547 6.42327 4.60064V4.6015Z" fill="black"></path></svg>